{"title":"Diarios de motocicleta","uid":14191821,"size":1936097332,"categoryP":"video","categoryS":"movies","magnet":"?xt=urn:btih:422cea30ac8017a31e36ea72a90b58ff535b7891&amp;dn=Diarios+de+motocicleta&amp;tr=udp%3A%2F%2Ftracker.leechers-paradise.org%3A6969&amp;tr=udp%3A%2F%2Fzer0day.ch%3A1337&amp;tr=udp%3A%2F%2Fopen.demonii.com%3A1337&amp;tr=udp%3A%2F%2Ftracker.coppersurfer.tk%3A6969&amp;tr=udp%3A%2F%2Fexodus.desync.com%3A6969","seeders":1,"leechers":0,"uploader":null,"files":1,"time":1459894164,"description":"https://www.google.com/search?q=diarios+de+motocicleta&amp;biw=1366&amp;bih=666&amp;source=lnms&amp;tbm=isch&amp;sa=X&amp;sqi=2&amp;ved=0ahUKEwj0sqOHpvjLAhXDIZAKHQlPCoIQ_AUIBygC\r\n \nhttps://es.wikipedia.org/wiki/Diarios_de_motocicleta_%28pel%C3%ADcula%29\r\n\r\nNombre:2004 - Diarios de Motocicleta.avi\r\nCRC-32:edc64bca\r\n MD4:654c9e50a563cc293ddafb82aba1364c\r\n MD5:7a21110de4d074dd49a0e092090afd5a\r\n SHA-1:08177ea4141a4b478fb5f32cb86c187ea263e355\r\n\r\nFormat:AVI\r\nFormat/Info:Audio Video Interleave\r\nFormat profile:OpenDML\r\nFile size:1.80 GiB\r\nDuration:2h 5mn\r\nOverall bit rate:2 052 Kbps\r\nMovie name:Äíåâíèêè ìîòîöèêëèñòà/Diarios de motocicleta/The Motorcycle Diaries (2004)\r\nDirector:Infernum (HDRip 1080)\r\nWriting application:Lavf55.19.104\r\nCopyright:HQ-ViDEO (www.hq-video.ru)\r\nComment:26.03.2009\r\n\r\nVideo\r\nID:0\r\nFormat:xvid\r\nCodec ID:xvid\r\nDuration:2h 5mn\r\nBit rate:1 911 Kbps\r\nWidth:720 pixels\r\nHeight:576 pixels\r\nDisplay aspect ratio:5:4\r\nFrame rate:25.000 fps\r\nStandard:PAL\r\nScan type:Progressive\r\nBits/(Pixel*Frame):0.184\r\nStream size:1.68 GiB (93%)\r\n\r\nAudio\r\nID:1\r\nFormat:MPEG Audio\r\nFormat version:Version 1\r\nFormat profile:Layer 3\r\nMode:Joint stereo\r\nMode extension:MS Stereo\r\nCodec ID:55\r\nCodec ID/Hint:MP3\r\nDuration:2h 5mn\r\nBit rate mode:Constant\r\nBit rate:128 Kbps\r\nChannel(s):2 channels\r\nSampling rate:44.1 KHz\r\nCompression mode:Lossy\r\nStream size:115 MiB (6%)\r\nAlignment:Aligned on interleaves\r\nInterleave, duration:26 ms (0.65 video frame)\r\nInterleave, preload duration:78 ms","torrent":{"xt":"urn:btih:422cea30ac8017a31e36ea72a90b58ff535b7891","amp;dn":"Diarios+de+motocicleta","amp;tr":["udp%3A%2F%2Ftracker.leechers-paradise.org%3A6969","udp%3A%2F%2Fzer0day.ch%3A1337","udp%3A%2F%2Fopen.demonii.com%3A1337","udp%3A%2F%2Ftracker.coppersurfer.tk%3A6969","udp%3A%2F%2Fexodus.desync.com%3A6969"],"infoHash":"422cea30ac8017a31e36ea72a90b58ff535b7891","infoHashBuffer":{"type":"Buffer","data":[66,44,234,48,172,128,23,163,30,54,234,114,169,11,88,255,83,91,120,145]},"announce":[],"urlList":[]}}